<svg width="24" height="25" viewBox="0 0 24 25" fill="none" xmlns="http://www.w3.org/2000/svg">
<path fill-rule="evenodd" clip-rule="evenodd" d="M17.3333 0.323608H6.66667C2.98477 0.323608 0 3.30838 0 6.99028V17.6569C0 21.3388 2.98477 24.3236 6.66667 24.3236H17.3333C21.0152 24.3236 24 21.3388 24 17.6569V6.99028C24 3.30838 21.0152 0.323608 17.3333 0.323608ZM21.6667 17.6569C21.6593 20.0471 19.7235 21.9829 17.3333 21.9903H6.66667C4.27647 21.9829 2.34065 20.0471 2.33333 17.6569V6.99028C2.34065 4.60008 4.27647 2.66426 6.66667 2.65694H17.3333C19.7235 2.66426 21.6593 4.60008 21.6667 6.99028V17.6569ZM18.3333 7.32361C19.0697 7.32361 19.6667 6.72665 19.6667 5.99028C19.6667 5.2539 19.0697 4.65694 18.3333 4.65694C17.5969 4.65694 17 5.2539 17 5.99028C17 6.72665 17.5969 7.32361 18.3333 7.32361ZM12 6.32361C8.68629 6.32361 6 9.0099 6 12.3236C6 15.6373 8.68629 18.3236 12 18.3236C15.3137 18.3236 18 15.6373 18 12.3236C18.0036 10.7312 17.3725 9.20303 16.2465 8.07705C15.1205 6.95106 13.5924 6.32006 12 6.32361ZM8.33333 12.3236C8.33333 14.3487 9.97493 15.9903 12 15.9903C14.0251 15.9903 15.6667 14.3487 15.6667 12.3236C15.6667 10.2985 14.0251 8.65694 12 8.65694C9.97493 8.65694 8.33333 10.2985 8.33333 12.3236Z" fill="black"/>
</svg>
