<svg width="28" height="27" viewBox="0 0 28 27" fill="none" xmlns="http://www.w3.org/2000/svg">
<path d="M4.21299 27C2.81376 27 1.70043 26.4496 0.873018 25.3487C0.045603 24.2479 -0.193666 23.022 0.15521 21.671L2.67383 12.0079C1.90425 11.5105 1.269 10.8355 0.768075 9.98289C0.267149 9.13026 0.0162191 8.17105 0.0152863 7.10526C0.0152863 5.5421 0.563321 4.20395 1.65939 3.09079C2.75546 1.97763 4.07307 1.42105 5.61223 1.42105H16.8061C17.8555 1.42105 18.6484 1.87105 19.1848 2.77105C19.7212 3.67105 19.7562 4.59474 19.2898 5.5421L16.4913 11.2263C16.2348 11.7 15.8905 12.0789 15.4586 12.3632C15.0268 12.6474 14.5431 12.7895 14.0076 12.7895H11.1742L10.7894 14.2105H11.2092C11.6056 14.2105 11.9382 14.3469 12.2068 14.6198C12.4755 14.8926 12.6093 15.2299 12.6084 15.6316V18.4737C12.6084 18.8763 12.4741 19.2141 12.2054 19.4869C11.9368 19.7597 11.6047 19.8957 11.2092 19.8947H9.3202L8.27078 23.8737C8.01425 24.7974 7.51286 25.5496 6.7666 26.1303C6.02034 26.7111 5.16914 27.0009 4.21299 27ZM4.21299 24.1579C4.53948 24.1579 4.81933 24.0632 5.05253 23.8737C5.28574 23.6842 5.44898 23.4355 5.54227 23.1276L8.27078 12.7895H5.36736L2.84874 22.3816C2.73214 22.8316 2.81376 23.2404 3.0936 23.6079C3.37345 23.9755 3.74658 24.1588 4.21299 24.1579ZM5.61223 9.94737H14.0076L16.8061 4.26316H5.61223C4.84265 4.26316 4.18408 4.54168 3.63651 5.09874C3.08894 5.65579 2.81469 6.32463 2.81376 7.10526C2.81282 7.88589 3.08707 8.55521 3.63651 9.11321C4.18594 9.67121 4.84451 9.94926 5.61223 9.94737ZM22.4031 4.26316L21.5285 2.34474L26.6008 0L27.4403 1.95395L22.4031 4.26316ZM26.6008 14.2105L21.5285 11.9013L22.4031 9.94737L27.4403 12.2921L26.6008 14.2105ZM22.4031 8.17105V6.03947H28V8.17105H22.4031Z" fill="black"/>
</svg>
