<svg width="40" height="40" viewBox="0 0 40 40" fill="none" xmlns="http://www.w3.org/2000/svg">
<path d="M32.5 33.9757C32.5 30.6012 30.0589 26.2499 26.25 26.25H13.75C9.94108 26.2499 7.5 30.6012 7.5 33.9757M1.25 20C1.25 9.64466 9.64466 1.25 20 1.25C30.3553 1.25 38.75 9.64466 38.75 20C38.75 30.3553 30.3553 38.75 20 38.75C9.64466 38.75 1.25 30.3553 1.25 20ZM26.25 13.75C26.25 17.2018 23.4518 20 20 20C16.5482 20 13.75 17.2018 13.75 13.75C13.75 10.2982 16.5482 7.5 20 7.5C23.4518 7.5 26.25 10.2982 26.25 13.75Z" stroke="black" stroke-width="2" stroke-linecap="round" stroke-linejoin="round"/>
</svg>
